<?xml version="1.0" standalone="no"?>
<!DOCTYPE svg PUBLIC "-//W3C//DTD SVG 20010904//EN"
 "http://www.w3.org/TR/2001/REC-SVG-20010904/DTD/svg10.dtd">
<svg version="1.0" xmlns="http://www.w3.org/2000/svg"
 width="300.000000pt" height="180.000000pt" viewBox="0 0 300.000000 180.000000"
 preserveAspectRatio="xMidYMid meet">
<metadata>
Created by potrace 1.10, written by Peter Selinger 2001-2011
</metadata>
<g transform="translate(0.000000,180.000000) scale(0.100000,-0.100000)"
fill="#000000" stroke="none">
<path d="M1453 1489 c-58 -11 -94 -31 -135 -77 -44 -48 -62 -100 -62 -172 1
-64 21 -109 72 -162 27 -28 32 -38 19 -38 -30 0 -18 -19 26 -42 34 -19 58 -23
127 -23 69 0 93 4 128 23 43 23 55 42 25 42 -12 0 -8 8 16 32 69 67 92 154 66
243 -35 123 -157 198 -282 174z m111 -31 c58 -18 128 -90 145 -151 19 -67 9
-120 -36 -185 -21 -31 -43 -65 -48 -76 -18 -36 -73 -58 -135 -52 -79 7 -107
20 -123 58 -8 18 -22 39 -31 47 -51 43 -73 162 -42 236 43 102 160 155 270
123z"/>
<path d="M1232 983 c-29 -19 -71 -56 -93 -82 -45 -50 -109 -172 -109 -207 0
-24 62 -91 126 -135 l42 -28 11 46 c18 70 46 117 96 161 79 69 195 91 298 56
93 -32 182 -141 189 -233 1 -17 4 -31 6 -31 11 0 97 66 135 105 l46 46 -13 37
c-41 115 -128 227 -218 279 -35 21 -37 21 -53 3 -9 -10 -40 -29 -68 -41 -99
-45 -251 -25 -322 41 -20 18 -21 18 -73 -17z m116 -35 c110 -54 231 -49 338
14 l33 20 44 -30 c70 -49 157 -160 157 -202 0 -10 5 -22 10 -25 6 -3 10 -15
10 -26 0 -10 -4 -19 -10 -19 -5 0 -10 -7 -10 -15 0 -9 -10 -20 -22 -25 -13 -5
-18 -9 -13 -9 11 -1 -45 -41 -57 -41 -4 0 -21 29 -38 65 -33 68 -80 114 -160
156 -64 33 -195 33 -258 0 -69 -35 -132 -100 -165 -168 -16 -35 -32 -63 -35
-63 -9 0 -76 54 -99 80 -25 29 -24 39 18 127 37 77 135 177 188 192 2 1 33
-14 69 -31z"/>
<path d="M1460 715 c0 -33 -39 -53 -74 -37 -20 9 -27 7 -45 -12 -18 -19 -19
-25 -7 -41 18 -24 0 -73 -29 -77 -13 -2 -21 -12 -23 -29 -2 -21 2 -28 21 -33
32 -8 51 -50 35 -76 -11 -17 -9 -23 10 -42 19 -19 25 -21 42 -10 31 19 68 5
75 -29 6 -25 11 -28 38 -26 25 2 33 8 35 25 5 31 44 49 76 34 20 -9 27 -7 45
12 18 19 19 25 7 41 -18 25 0 72 31 80 33 8 32 52 -1 61 -32 8 -50 48 -34 74
11 17 9 23 -9 42 -20 19 -25 20 -47 8 -22 -11 -29 -11 -51 4 -14 9 -25 25 -25
36 0 16 -7 20 -35 20 -31 0 -35 -3 -35 -25z m65 -35 c18 -20 17 -20 -18 -20
-19 0 -44 -3 -53 -7 -14 -5 -13 -1 6 19 30 33 42 34 65 8z m-119 -59 c-14 -15
-26 -33 -26 -41 0 -27 -13 0 -17 38 l-4 38 36 -4 36 -4 -25 -27z m227 27 c5
-17 -3 -48 -13 -48 -4 0 -15 9 -26 21 -16 17 -16 22 -4 29 21 13 38 12 43 -2z
m-88 -24 c75 -35 92 -126 34 -183 -35 -35 -89 -42 -137 -17 -82 42 -67 179 21
205 45 13 45 13 82 -5z m-180 -109 l0 -45 -25 25 c-24 24 -24 25 -5 44 28 28
30 26 30 -24z m304 22 c8 -10 7 -17 -1 -25 -19 -19 -28 -14 -28 13 0 27 12 32
29 12z m-275 -113 c21 -21 20 -31 -4 -37 -24 -6 -31 3 -23 31 6 26 7 26 27 6z
m239 2 c7 -17 -11 -36 -29 -29 -10 4 -11 10 -3 24 12 22 25 24 32 5z m-103
-61 c-7 -8 -20 -15 -30 -15 -10 0 -20 7 -24 15 -4 12 3 15 31 15 30 0 34 -2
23 -15z"/>
</g>
</svg>
